<svg xmlns="http://www.w3.org/2000/svg" width="32" height="32" fill="none" viewBox="0 0 32 32"><style>path.bg{fill:#00718c}circle.sign,path.sign{fill:#fafafa}@media (prefers-color-scheme:dark){path.bg{fill:#4fddff}circle.sign,path.sign{fill:#222}}</style><path d="M0 5.517A5.517 5.517 0 0 1 5.517 0h20.966A5.517 5.517 0 0 1 32 5.517v20.966A5.517 5.517 0 0 1 26.483 32H5.517A5.517 5.517 0 0 1 0 26.483z" class="bg"/><path d="M15.306 21.39a4.9 4.9 0 0 1-.322-1.81L15 11H9V8h13v3h-4v8.5c0 .617.051.813.373 1.1.309.289.684.4 1.127.4H22v3h-2.5c-.724 0-1.257-.142-1.82-.348a4.5 4.5 0 0 1-1.469-.884 3.66 3.66 0 0 1-.905-1.378" class="sign"/><circle cx="8.5" cy="9.5" r="2.5" class="sign"/><circle cx="23.5" cy="22.5" r="2.5" class="sign"/><circle cx="23.5" cy="9.5" r="2.5" class="sign"/></svg>