<?xml version="1.0" encoding="utf-8" ?>
<svg baseProfile="tiny" height="32" version="1.2" width="32" xmlns="http://www.w3.org/2000/svg" xmlns:ev="http://www.w3.org/2001/xml-events" xmlns:xlink="http://www.w3.org/1999/xlink"><defs /><rect fill="white" height="32" width="32" x="0" y="0" /><path d="M 0,30 L 0,31 L 1,31 Z" fill="rgb(0,122,144)" stroke="none" /><path d="M 31,29 L 31,30 L 30,31 L 29,31 L 31,31 Z" fill="rgb(0,122,144)" stroke="none" /><path d="M 7,7 L 6,8 L 6,10 L 7,11 L 9,11 L 10,10 L 14,10 L 15,11 L 15,21 L 17,23 L 21,23 L 22,24 L 24,24 L 25,23 L 25,21 L 24,20 L 22,20 L 21,21 L 19,21 L 17,19 L 17,11 L 18,10 L 21,10 L 22,11 L 24,11 L 25,10 L 25,8 L 24,7 L 22,7 L 21,8 L 10,8 L 9,7 Z" fill="rgb(0,122,144)" stroke="none" /><path d="M 29,0 L 30,0 L 31,1 L 31,2 L 31,0 Z" fill="rgb(0,122,144)" stroke="none" /><path d="M 0,0 L 0,2 L 0,1 L 1,0 Z" fill="rgb(0,122,144)" stroke="none" /></svg>